<?xml version="1.0" encoding="UTF-8"?>
<svg version="1.1" xmlns="http://www.w3.org/2000/svg" width="290" height="237">
<path d="M0 0 C95.7 0 191.4 0 290 0 C290 78.21 290 156.42 290 237 C194.3 237 98.6 237 0 237 C0 158.79 0 80.58 0 0 Z " fill="#FDFEFE" transform="translate(0,0)"/>
<path d="M0 0 C53.13 0 106.26 0 161 0 C161 42.57 161 85.14 161 129 C158.08756499 125.35945624 156.37966627 123.06883997 154.5 119.0625 C151.6627349 113.23901337 148.61662377 107.55358558 145.5 101.875 C140.87234187 93.4399881 136.29631798 84.97912746 131.75 76.5 C128.08041174 69.66031732 124.39713573 62.83807452 120.5 56.125 C117.66693335 51.2375108 115.1138369 46.27064398 112.62890625 41.19921875 C109.97981155 35.99632053 107.07169736 30.94231869 104.1875 25.8671875 C101.75943231 21.59268855 99.41782825 17.27322988 97.09375 12.94140625 C96.14691539 11.05725334 96.14691539 11.05725334 95 10 C92.85441173 9.91224395 90.70595579 9.89304781 88.55859375 9.90234375 C87.25341797 9.90556641 85.94824219 9.90878906 84.60351562 9.91210938 C83.2148431 9.92046599 81.82617123 9.92893095 80.4375 9.9375 C79.04492344 9.94251334 77.65234519 9.94707653 76.25976562 9.95117188 C72.8398013 9.96300566 69.41992156 9.9794912 66 10 C60.318842 20.57662393 54.83777253 31.21123471 49.75244141 42.08862305 C45.98317765 50.13377202 41.99161633 58.06364951 38 66 C26.7752989 88.25926954 26.7752989 88.25926954 15.96044922 110.71899414 C13.5969938 115.76045733 11.17203951 120.76704088 8.6875 125.75 C8.37361328 126.38228516 8.05972656 127.01457031 7.73632812 127.66601562 C5.62947961 131.8661783 3.35880867 135.93847514 1 140 C0.67 140 0.34 140 0 140 C0 93.8 0 47.6 0 0 Z " fill="#24A6B0" transform="translate(64,0)"/>
<path d="M0 0 C0.93585938 0.28359375 1.87171875 0.5671875 2.8359375 0.859375 C24.38801755 8.41918154 38.89160151 23.84174078 48.97412109 43.85693359 C52.48949021 51.20055808 54 56.82101926 54 65 C44.43 65 34.86 65 25 65 C24.7525 62.586875 24.505 60.17375 24.25 57.6875 C22.53768933 43.24134473 17.07779731 31.64921259 6 22 C-2.41170554 15.60710379 -12.81790096 16.01679646 -23 17 C-36.84964052 19.61181805 -48.18697608 28.36065792 -58 38 C-58.55300781 38.54011719 -59.10601562 39.08023438 -59.67578125 39.63671875 C-63.16696641 43.37256917 -65.73489317 47.6675259 -68.3125 52.0625 C-68.6626416 52.65248779 -69.0127832 53.24247559 -69.37353516 53.8503418 C-71.62207208 57.81994682 -72.21519552 60.29117314 -73 65 C-84.88 65 -96.76 65 -109 65 C-106.11347115 44.79429808 -93.91932679 28.33747826 -78 16 C-55.64366113 0.63001703 -26.9372985 -8.2111502 0 0 Z " fill="#15ECC5" transform="translate(173,91)"/>
<path d="M0 0 C4.79565321 4.68141623 7.62674235 10.89864136 10.3125 16.9375 C13.70888699 24.37436557 17.35388192 31.60753902 21.3449707 38.74389648 C22.28751792 40.46566068 23.15212819 42.22969478 24 44 C23.505 44.99 23.505 44.99 23 46 C22.05125 45.54625 21.1025 45.0925 20.125 44.625 C4.97541503 38.27000511 -13.64698386 39.88232795 -29 45 C-27.61657341 40.47989331 -25.79799755 36.44416995 -23.625 32.25 C-21.5684774 28.22966688 -19.60855539 24.22420633 -18 20 C-16.3468869 15.69471849 -14.41415094 11.57012352 -12.375 7.4375 C-12.07335937 6.81681641 -11.77171875 6.19613281 -11.4609375 5.55664062 C-8.63897024 -0.08099486 -6.36549315 -0.95482397 0 0 Z " fill="#17ECC5" transform="translate(149,33)"/>
<path d="M0 0 C6.25329892 0.50702424 11.45837505 3.26613169 17 6 C17.92554688 6.45632812 18.85109375 6.91265625 19.8046875 7.3828125 C29.3527081 12.33263621 38.50864147 18.49057425 44 28 C44 28.66 44 29.32 44 30 C44.66 30 45.32 30 46 30 C48.46046796 35.8436114 49 38.23855095 49 45 C39.43 45 29.86 45 20 45 C19.7525 42.586875 19.505 40.17375 19.25 37.6875 C17.53120594 23.1866467 12.17720505 12.57174409 1.5390625 2.53125 C1.03117188 2.0259375 0.52328125 1.520625 0 1 C0 0.67 0 0.34 0 0 Z " fill="#02BD91" transform="translate(178,111)"/>
<path d="M0 0 C4.79565321 4.68141623 7.62674235 10.89864136 10.3125 16.9375 C13.70888699 24.37436557 17.35388192 31.60753902 21.3449707 38.74389648 C22.28751792 40.46566068 23.15212819 42.22969478 24 44 C23.505 44.99 23.505 44.99 23 46 C22.05125 45.54625 21.1025 45.0925 20.125 44.625 C17.80005345 43.56136049 16.1253029 43.00600493 13.5546875 42.8828125 C10.57207419 42.72775309 8.6627497 42.38532035 6 41 C3.29351657 37.07813108 1.64548517 32.8401818 -0.04345703 28.41699219 C-1.10632802 25.73133043 -2.27457344 23.10816509 -3.46484375 20.4765625 C-4.31040286 18.58876869 -5.1554589 16.70074946 -6 14.8125 C-6.41064697 13.90395264 -6.82129395 12.99540527 -7.24438477 12.05932617 C-7.61748779 11.20056885 -7.99059082 10.34181152 -8.375 9.45703125 C-8.71273437 8.69366455 -9.05046875 7.93029785 -9.3984375 7.14379883 C-10.09644008 4.6563148 -9.9691225 3.37949534 -9 1 C-5.72195 -0.639025 -3.62178526 -0.54326779 0 0 Z " fill="#06BE93" transform="translate(149,33)"/>
<path d="M0 0 C3.76367773 1.77919311 5.50626666 3.29231555 7.875 6.6875 C9.31593519 10.9302536 9.86349013 14.57164235 9 19 C7.03539927 22.54531397 4.3642908 24.75713946 1 27 C-3.56590177 27.59588888 -7.71361844 27.57476623 -11.9375 25.6875 C-15.70063815 22.60856879 -17.66420624 20.78708822 -18.2734375 15.73046875 C-18.58139823 8.01960595 -18.58139823 8.01960595 -15.6875 4.5 C-10.50041222 -0.32519794 -6.86649267 -0.85563772 0 0 Z " fill="#30ABB4" transform="translate(215,190)"/>
<path d="M0 0 C7 0 7 0 8.62084961 1.28515625 C8.96124268 1.87167969 9.30163574 2.45820313 9.65234375 3.0625 C10.03583984 3.69414062 10.41933594 4.32578125 10.81445312 4.9765625 C11.18505859 5.64429688 11.55566406 6.31203125 11.9375 7 C12.33517578 7.66773438 12.73285156 8.33546875 13.14257812 9.0234375 C14.11807693 10.66885717 15.06220268 12.33280476 16 14 C16.33 9.38 16.66 4.76 17 0 C19.31 0 21.62 0 24 0 C24 8.91 24 17.82 24 27 C17 27 17 27 15.28735352 25.62304688 C14.90506592 24.99462891 14.52277832 24.36621094 14.12890625 23.71875 C13.48598633 22.70361328 13.48598633 22.70361328 12.83007812 21.66796875 C12.41177734 20.95253906 11.99347656 20.23710937 11.5625 19.5 C11.11712891 18.78457031 10.67175781 18.06914062 10.21289062 17.33203125 C9.11945415 15.56842404 8.05665134 13.7858896 7 12 C6.67 16.95 6.34 21.9 6 27 C4.02 27 2.04 27 0 27 C0 18.09 0 9.18 0 0 Z " fill="#30ABB4" transform="translate(128,190)"/>
<path d="M0 0 C14.85 0 29.7 0 45 0 C45 3.3 45 6.6 45 10 C30.15 10 15.3 10 0 10 C0 6.7 0 3.4 0 0 Z " fill="#0FBF96" transform="translate(56,158)"/>
<path d="M0 0 C2.05078125 0.03255208 4.1015625 0.06510417 6.15234375 0.09765625 C12.72681184 18.43808178 12.72681184 18.43808178 15.15234375 27.09765625 C12.84234375 27.09765625 10.53234375 27.09765625 8.15234375 27.09765625 C7.82234375 25.77765625 7.49234375 24.45765625 7.15234375 23.09765625 C3.52234375 23.09765625 -0.10765625 23.09765625 -3.84765625 23.09765625 C-4.17765625 24.41765625 -4.50765625 25.73765625 -4.84765625 27.09765625 C-6.82765625 27.09765625 -8.80765625 27.09765625 -10.84765625 27.09765625 C-10.25974812 21.07159791 -8.4955316 15.86406381 -6.34765625 10.22265625 C-6.02667969 9.35640625 -5.70570312 8.49015625 -5.375 7.59765625 C-2.57993774 0.13636035 -2.57993774 0.13636035 0 0 Z " fill="#34ADB6" transform="translate(43.84765625,189.90234375)"/>
<path d="M0 0 C13.53 0 27.06 0 41 0 C41 3.3 41 6.6 41 10 C27.47 10 13.94 10 0 10 C0 6.7 0 3.4 0 0 Z " fill="#2EAAB4" transform="translate(196,158)"/>
<path d="M0 0 C1.41655793 -0.0272415 2.83327045 -0.04650467 4.25 -0.0625 C5.43335938 -0.07990234 5.43335938 -0.07990234 6.640625 -0.09765625 C9 0 9 0 13 1 C13 3.97 13 6.94 13 10 C14.32 10 15.64 10 17 10 C17 7.03 17 4.06 17 1 C18.79133978 0.94608007 20.58313899 0.90724429 22.375 0.875 C23.37273437 0.85179687 24.37046875 0.82859375 25.3984375 0.8046875 C28 1 28 1 30 3 C30.33 2.34 30.66 1.68 31 1 C33.64 1 36.28 1 39 1 C39 1.66 39 2.32 39 3 C37.68 3 36.36 3 35 3 C35 3.66 35 4.32 35 5 C35.99 5 36.98 5 38 5 C38 5.99 38 6.98 38 8 C37.01 8 36.02 8 35 8 C35 8.66 35 9.32 35 10 C36.32 10 37.64 10 39 10 C39 10.99 39 11.98 39 13 C34.73352 13.81154994 30.69994998 14.12847564 26.359375 14.1328125 C25.12445313 14.13410156 23.88953125 14.13539063 22.6171875 14.13671875 C21.34101563 14.13285156 20.06484375 14.12898437 18.75 14.125 C17.45835937 14.12886719 16.16671875 14.13273438 14.8359375 14.13671875 C13.60617188 14.13542969 12.37640625 14.13414062 11.109375 14.1328125 C9.98499023 14.13168457 8.86060547 14.13055664 7.70214844 14.12939453 C5 14 5 14 3 13 C3 9.7 3 6.4 3 3 C2.01 3 1.02 3 0 3 C0 2.01 0 1.02 0 0 Z " fill="#DDF1F2" transform="translate(191,223)"/>
<path d="M0 0 C2.31 0 4.62 0 7 0 C7.33 3.3 7.66 6.6 8 10 C8.4125 9.278125 8.825 8.55625 9.25 7.8125 C13.91072697 0.32204594 13.91072697 0.32204594 17.24609375 -0.6640625 C19.4375 -0.625 19.4375 -0.625 23 0 C21.50923566 3.2826932 19.61379679 5.93077441 17.375 8.75 C16.74335937 9.54921875 16.11171875 10.3484375 15.4609375 11.171875 C14.97882813 11.77515625 14.49671875 12.3784375 14 13 C14.93307421 14.44037669 15.87165077 15.87718985 16.8125 17.3125 C17.33457031 18.11300781 17.85664062 18.91351563 18.39453125 19.73828125 C19.89981595 21.99977827 19.89981595 21.99977827 21.69921875 23.66796875 C23 25 23 25 23 27 C17.97927461 27.88082902 17.97927461 27.88082902 15 27 C12.15152076 23.96517165 10.06006583 20.6051152 8 17 C7.67 20.3 7.34 23.6 7 27 C4.69 27 2.38 27 0 27 C0 18.09 0 9.18 0 0 Z " fill="#34ADB6" transform="translate(71,190)"/>
<path d="M0 0 C1.98 0 3.96 0 6 0 C6 0.66 6 1.32 6 2 C4.68 2 3.36 2 2 2 C2 2.99 2 3.98 2 5 C3.32 5 4.64 5 6 5 C6 5.66 6 6.32 6 7 C5.01 7 4.02 7 3 7 C3 7.66 3 8.32 3 9 C4.65 9 6.3 9 8 9 C8.99 6.03 9.98 3.06 11 0 C12.32 0 13.64 0 15 0 C16.49821059 3.37097383 17 5.20442119 17 9 C17.66 9 18.32 9 19 9 C19 6.03 19 3.06 19 0 C27.57142857 -0.28571429 27.57142857 -0.28571429 31 2 C31 1.34 31 0.68 31 0 C31.99 0 32.98 0 34 0 C34.66 0.99 35.32 1.98 36 3 C36.66 2.01 37.32 1.02 38 0 C38.66 0 39.32 0 40 0 C39.55170486 1.98146451 39.09107502 3.96014211 38.625 5.9375 C38.24214844 7.59072266 38.24214844 7.59072266 37.8515625 9.27734375 C37.57054687 10.17582031 37.28953125 11.07429687 37 12 C34.18306489 13.40846755 31.81920004 13.12976867 28.671875 13.1328125 C27.39699219 13.13410156 26.12210937 13.13539063 24.80859375 13.13671875 C24.1419873 13.13462402 23.47538086 13.1325293 22.78857422 13.13037109 C20.77173202 13.12505726 18.75511618 13.13030043 16.73828125 13.13671875 C14.81822266 13.13478516 14.81822266 13.13478516 12.859375 13.1328125 C11.10318848 13.13112061 11.10318848 13.13112061 9.31152344 13.12939453 C6.12334593 13.00481962 3.13054027 12.598643 0 12 C0 8.04 0 4.08 0 0 Z " fill="#9ED7DC" transform="translate(246,224)"/>
<path d="M0 0 C3.125 1.75 3.125 1.75 5 4 C5 5.32 5 6.64 5 8 C2.69 8 0.38 8 -2 8 C-2.33 7.34 -2.66 6.68 -3 6 C-5.02463255 5.34786708 -5.02463255 5.34786708 -7 5 C-7 6.65 -7 8.3 -7 10 C-6.38511719 10.19335938 -5.77023438 10.38671875 -5.13671875 10.5859375 C-4.32847656 10.84632813 -3.52023438 11.10671875 -2.6875 11.375 C-1.88699219 11.63023437 -1.08648437 11.88546875 -0.26171875 12.1484375 C2 13 2 13 5 15 C5.67175573 22.05343511 5.67175573 22.05343511 3.625 24.9375 C-0.65747686 27.73758102 -5.00716895 27.58786559 -10 27 C-12.625 25.25 -12.625 25.25 -14 23 C-14 21.68 -14 20.36 -14 19 C-12.02 19 -10.04 19 -8 19 C-7.67 19.99 -7.34 20.98 -7 22 C-5.35 22 -3.7 22 -2 22 C-2.16013535 20.05158651 -2.16013535 20.05158651 -3 18 C-5.0072589 16.71899229 -5.0072589 16.71899229 -7.4375 15.875 C-11.832021 14.167979 -11.832021 14.167979 -14 12 C-14.65835411 5.19700748 -14.65835411 5.19700748 -12.625 1.5 C-8.52296683 -0.84401895 -4.60557938 -0.74403544 0 0 Z " fill="#31ABB4" transform="translate(251,190)"/>
<path d="M0 0 C2.31 0 4.62 0 7 0 C7 0.66 7 1.32 7 2 C5.68 2 4.36 2 3 2 C3 2.66 3 3.32 3 4 C7.41522109 2.73025028 7.41522109 2.73025028 11 0 C16.29577465 -0.56338028 16.29577465 -0.56338028 18.875 1.5 C19.24625 1.995 19.6175 2.49 20 3 C20.33 2.01 20.66 1.02 21 0 C24.375 -0.125 24.375 -0.125 28 0 C28.66 0.66 29.32 1.32 30 2 C29.70241581 4.3381615 29.36760731 6.67182036 29 9 C29.33 9.99 29.66 10.98 30 12 C27.30734639 13.3463268 25.19885751 13.12962636 22.1875 13.1328125 C21.02992187 13.13410156 19.87234375 13.13539063 18.6796875 13.13671875 C17.46539063 13.13285156 16.25109375 13.12898437 15 13.125 C13.78570312 13.12886719 12.57140625 13.13273438 11.3203125 13.13671875 C9.58394531 13.13478516 9.58394531 13.13478516 7.8125 13.1328125 C6.21341797 13.13112061 6.21341797 13.13112061 4.58203125 13.12939453 C2 13 2 13 0 12 C0 8.04 0 4.08 0 0 Z " fill="#EFF8F9" transform="translate(2,224)"/>
<path d="M0 0 C6.93 0 13.86 0 21 0 C21 1.98 21 3.96 21 6 C18.69 6 16.38 6 14 6 C14 12.93 14 19.86 14 27 C11.69 27 9.38 27 7 27 C7 20.07 7 13.14 7 6 C4.69 6 2.38 6 0 6 C0 4.02 0 2.04 0 0 Z " fill="#3BAFB8" transform="translate(164,190)"/>
<path d="M0 0 C2.31 0.33 4.62 0.66 7 1 C7 4.63 7 8.26 7 12 C6.01 12 5.02 12 4 12 C3.67 9.36 3.34 6.72 3 4 C2.34 4.66 1.68 5.32 1 6 C1.26676204 7.98491642 1.26676204 7.98491642 2 10 C2.33 10.99 2.66 11.98 3 13 C-0.28144519 14.64072259 -3.89789996 14.14274434 -7.5 14.125 C-8.28503906 14.12886719 -9.07007812 14.13273438 -9.87890625 14.13671875 C-15.74669213 14.12665394 -15.74669213 14.12665394 -18 13 C-18 9.04 -18 5.08 -18 1 C-17.01 1 -16.02 1 -15 1 C-13.3125 3 -13.3125 3 -12 5 C-11.67 3.68 -11.34 2.36 -11 1 C-8.69 1 -6.38 1 -4 1 C-3.67 1.99 -3.34 2.98 -3 4 C-2.01 2.68 -1.02 1.36 0 0 Z " fill="#EDF7F8" transform="translate(131,223)"/>
<path d="M0 0 C3.96 0 7.92 0 12 0 C12 1.65 12 3.3 12 5 C13.65 5 15.3 5 17 5 C17 3.35 17 1.7 17 0 C19.31 0 21.62 0 24 0 C24 3.96 24 7.92 24 12 C19.96423344 13.00894164 16.36293071 13.11303696 12.25 13.0625 C11.55261719 13.05798828 10.85523437 13.05347656 10.13671875 13.04882812 C8.42444197 13.0371002 6.71220967 13.01916653 5 13 C5 12.34 5 11.68 5 11 C4.34 11 3.68 11 3 11 C3 8.03 3 5.06 3 2 C2.01 2 1.02 2 0 2 C0 1.34 0 0.68 0 0 Z " fill="#EAF6F7" transform="translate(87,224)"/>
<path d="M0 0 C4 1 4 1 5.25 3.0625 C5.4975 3.701875 5.745 4.34125 6 5 C6.33 3.35 6.66 1.7 7 0 C7.99 0 8.98 0 10 0 C10 0.66 10 1.32 10 2 C10.804375 1.505 10.804375 1.505 11.625 1 C14.57217367 -0.24091523 16.82934784 -0.20678166 20 0 C20.66 0.33 21.32 0.66 22 1 C22 1.66 22 2.32 22 3 C19.69 3 17.38 3 15 3 C15 4.65 15 6.3 15 8 C16.32 8 17.64 8 19 8 C18.34 7.67 17.68 7.34 17 7 C17 6.34 17 5.68 17 5 C18.98 5 20.96 5 23 5 C22.38722388 7.96175123 21.74627478 9.38058783 20 12 C16.45486174 13.43454432 12.64610437 13.13287287 8.875 13.125 C7.63492188 13.12757813 6.39484375 13.13015625 5.1171875 13.1328125 C2 13 2 13 0 12 C0 8.04 0 4.08 0 0 Z " fill="#E8F5F6" transform="translate(140,224)"/>
<path d="M0 0 C1.32 0 2.64 0 4 0 C4.99 2.97 5.98 5.94 7 9 C7.33 6.03 7.66 3.06 8 0 C10.64 0 13.28 0 16 0 C16.79953138 3.28696233 17.09658936 4.71023192 16 8 C16.31478446 9.33783393 16.64587656 10.67203709 17 12 C16 13 16 13 14.23413086 13.11352539 C13.48526611 13.10828857 12.73640137 13.10305176 11.96484375 13.09765625 C11.15595703 13.09443359 10.34707031 13.09121094 9.51367188 13.08789062 C8.66353516 13.07951172 7.81339844 13.07113281 6.9375 13.0625 C6.08349609 13.05798828 5.22949219 13.05347656 4.34960938 13.04882812 C2.23304337 13.03700373 0.11651315 13.01906769 -2 13 C-3.21213908 7.33264777 -2.52184306 5.04368612 0 0 Z " fill="#E4F4F5" transform="translate(53,224)"/>
<path d="M0 0 C2.31 0 4.62 0 7 0 C7 8.91 7 17.82 7 27 C4.69 27 2.38 27 0 27 C0 18.09 0 9.18 0 0 Z " fill="#37AEB7" transform="translate(107,190)"/>
<path d="M0 0 C3.63 0 7.26 0 11 0 C11 2.97 11 5.94 11 9 C12.32 9 13.64 9 15 9 C15 6.03 15 3.06 15 0 C15.99 0 16.98 0 18 0 C18.05422947 1.4370809 18.09289723 2.87475462 18.125 4.3125 C18.14820313 5.11300781 18.17140625 5.91351563 18.1953125 6.73828125 C18 9 18 9 16 12 C12.99231725 13.13276363 10.06483436 13.13452189 6.875 13.125 C5.57175781 13.12886719 5.57175781 13.12886719 4.2421875 13.1328125 C2 13 2 13 0 12 C0 8.04 0 4.08 0 0 Z " fill="#FAFDFD" transform="translate(172,224)"/>
<path d="M0 0 C2.375 1 2.375 1 4 3 C4.45833942 7.12505479 4.5500772 9.7057007 2.9375 13.5 C1 15 1 15 -2.4375 15.5625 C-6 15 -6 15 -8.5 12.9375 C-10.45640324 9.10621033 -10.13891039 7.1000774 -9 3 C-6.74390939 -0.68098995 -4.06983707 -0.4983474 0 0 Z " fill="#F6FBFB" transform="translate(213,196)"/>
<path d="M0 0 C1.47906892 -0.02689216 2.95827483 -0.04634621 4.4375 -0.0625 C5.26121094 -0.07410156 6.08492187 -0.08570313 6.93359375 -0.09765625 C9 0 9 0 10 1 C10.10486659 2.43608972 10.18408297 3.87409615 10.25 5.3125 C10.60456293 9.08649185 10.7448197 9.7448197 13.5625 12.5625 C14.366875 13.036875 15.17125 13.51125 16 14 C14.20841511 14.02696365 12.41671527 14.04637917 10.625 14.0625 C9.62726563 14.07410156 8.62953125 14.08570313 7.6015625 14.09765625 C5 14 5 14 3 13 C3 9.7 3 6.4 3 3 C2.01 3 1.02 3 0 3 C0 2.01 0 1.02 0 0 Z " fill="#F2F9FA" transform="translate(191,223)"/>
<path d="M0 0 C0.99 0 1.98 0 3 0 C3.66 0.99 4.32 1.98 5 3 C5.66 2.01 6.32 1.02 7 0 C7.66 0 8.32 0 9 0 C8.55170486 1.98146451 8.09107502 3.96014211 7.625 5.9375 C7.24214844 7.59072266 7.24214844 7.59072266 6.8515625 9.27734375 C6.57054687 10.17582031 6.28953125 11.07429687 6 12 C2.81175432 13.59412284 -0.62896662 13.10174735 -4.125 13.0625 C-4.87910156 13.05798828 -5.63320313 13.05347656 -6.41015625 13.04882812 C-8.27347127 13.03703499 -10.13674555 13.01909942 -12 13 C-11.67 12.34 -11.34 11.68 -11 11 C-8.66752239 10.66073053 -6.33414529 10.32759934 -4 10 C-1.80202597 7.80202597 -1.54102483 6.82453855 -0.875 3.875 C-0.58625 2.59625 -0.2975 1.3175 0 0 Z " fill="#F0F9F9" transform="translate(277,224)"/>
<path d="M0 0 C2.31 0 4.62 0 7 0 C7 0.66 7 1.32 7 2 C5.68 2 4.36 2 3 2 C3 2.66 3 3.32 3 4 C4.65 4 6.3 4 8 4 C8.20625 4.763125 8.4125 5.52625 8.625 6.3125 C10.42070704 9.82229103 12.43136312 10.52599781 16 12 C16 12.33 16 12.66 16 13 C13.70839681 13.02692484 11.41670454 13.04636124 9.125 13.0625 C7.84882813 13.07410156 6.57265625 13.08570313 5.2578125 13.09765625 C2 13 2 13 0 12 C0 8.04 0 4.08 0 0 Z " fill="#E7F5F6" transform="translate(2,224)"/>
<path d="M0 0 C1.875 1.1875 1.875 1.1875 3 3 C3.42822025 5.85480169 3.40659584 7.34492892 1.875 9.8125 C-0.87155972 11.55198782 -2.81846974 11.39769128 -6 11 C-7.875 9.8125 -7.875 9.8125 -9 8 C-9.42822025 5.14519831 -9.40659584 3.65507108 -7.875 1.1875 C-5.12844028 -0.55198782 -3.18153026 -0.39769128 0 0 Z " fill="#53B9C1" transform="translate(19,224)"/>
<path d="M0 0 C1.65 0 3.3 0 5 0 C5 3.96 5 7.92 5 12 C1.73118027 12.81720493 -0.46999069 13.11073543 -3.75 13.0625 C-4.54921875 13.05347656 -5.3484375 13.04445312 -6.171875 13.03515625 C-6.77515625 13.02355469 -7.3784375 13.01195312 -8 13 C-7.67 10.69 -7.34 8.38 -7 6 C-5.35 6 -3.7 6 -2 6 C-2 7.65 -2 9.3 -2 11 C-1.34 11 -0.68 11 0 11 C0 7.37 0 3.74 0 0 Z " fill="#E6F4F5" transform="translate(106,224)"/>
<path d="M0 0 C2.31 0.33 4.62 0.66 7 1 C7 4.63 7 8.26 7 12 C6.01 12 5.02 12 4 12 C3.67 9.36 3.34 6.72 3 4 C2.34 4.66 1.68 5.32 1 6 C1.35355436 8.26274788 1.97544426 9.95088852 3 12 C0.13275314 11.42655063 -0.8614515 11.1385485 -3 9 C-3.33 9.99 -3.66 10.98 -4 12 C-4.66 12 -5.32 12 -6 12 C-6 8.37 -6 4.74 -6 1 C-5.34 1 -4.68 1 -4 1 C-3.67 1.99 -3.34 2.98 -3 4 C-2.01 2.68 -1.02 1.36 0 0 Z " fill="#46B3BC" transform="translate(131,223)"/>
<path d="M0 0 C0.99 0 1.98 0 3 0 C3.66 1.32 4.32 2.64 5 4 C5.33 2.68 5.66 1.36 6 0 C7.32 0 8.64 0 10 0 C10.33 1.32 10.66 2.64 11 4 C11.66 2.68 12.32 1.36 13 0 C13.99 0 14.98 0 16 0 C15.01 3.63 14.02 7.26 13 11 C11.68 11 10.36 11 9 11 C8.67 9.35 8.34 7.7 8 6 C7.34 7.65 6.68 9.3 6 11 C4.68 11 3.36 11 2 11 C1.34 7.37 0.68 3.74 0 0 Z " fill="#55BAC1" transform="translate(33,224)"/>
<path d="M0 0 C6.32597793 -0.35807422 6.32597793 -0.35807422 9 1.0625 C10.6154422 4.19241926 9.79884015 6.68174093 9 10 C6.04335481 11.4783226 3.25770263 11.06032783 0 11 C0 7.37 0 3.74 0 0 Z " fill="#66C1C8" transform="translate(72,224)"/>
<path d="M0 0 C2.39763185 2.39763185 2.34280586 3.33273498 2.625 6.625 C2.69976562 7.44226563 2.77453125 8.25953125 2.8515625 9.1015625 C2.92503906 10.04128906 2.92503906 10.04128906 3 11 C4.32 11 5.64 11 7 11 C7.33 9.02 7.66 7.04 8 5 C8.66 5.33 9.32 5.66 10 6 C10 7.65 10 9.3 10 11 C11.32 11 12.64 11 14 11 C14 10.34 14 9.68 14 9 C14.99 8.67 15.98 8.34 17 8 C17.99 9.32 18.98 10.64 20 12 C19 13 19 13 16.95874023 13.11352539 C16.08419189 13.10828857 15.20964355 13.10305176 14.30859375 13.09765625 C13.36435547 13.09443359 12.42011719 13.09121094 11.44726562 13.08789062 C10.45404297 13.07951172 9.46082031 13.07113281 8.4375 13.0625 C7.44041016 13.05798828 6.44332031 13.05347656 5.41601562 13.04882812 C2.94395151 13.03700007 0.47200482 13.02051849 -2 13 C-1.34 12.67 -0.68 12.34 0 12 C-0.66 11.01 -1.32 10.02 -2 9 C-2.016173 6.22902515 -1.48763555 3.74849127 -1 1 C-0.67 0.67 -0.34 0.34 0 0 Z " fill="#F2F9FA" transform="translate(32,224)"/>
<path d="M0 0 C0.99 0 1.98 0 3 0 C4.6875 2 4.6875 2 6 4 C6.33 2.68 6.66 1.36 7 0 C7.99 0 8.98 0 10 0 C10 3.63 10 7.26 10 11 C6 10 6 10 4 7 C3.67 8.32 3.34 9.64 3 11 C2.01 11 1.02 11 0 11 C0 7.37 0 3.74 0 0 Z " fill="#6DC4CA" transform="translate(113,224)"/>
<path d="M0 0 C3.375 -0.125 3.375 -0.125 7 0 C7.66 0.66 8.32 1.32 9 2 C8.70764733 4.33882138 8.37400786 6.67284 8 9 C8.33 9.66 8.66 10.32 9 11 C7.0625 10.625 7.0625 10.625 5 10 C4.67 9.34 4.34 8.68 4 8 C3.67 8.99 3.34 9.98 3 11 C2.01 11 1.02 11 0 11 C0 7.37 0 3.74 0 0 Z " fill="#5FBEC5" transform="translate(212,224)"/>
<path d="M0 0 C3.375 -0.125 3.375 -0.125 7 0 C7.66 0.66 8.32 1.32 9 2 C8.9765625 4.1640625 8.9765625 4.1640625 8.625 6.625 C8.45871094 7.85089844 8.45871094 7.85089844 8.2890625 9.1015625 C8.14597656 10.04128906 8.14597656 10.04128906 8 11 C7.01 10.67 6.02 10.34 5 10 C4.67 9.34 4.34 8.68 4 8 C3.67 8.99 3.34 9.98 3 11 C2.01 11 1.02 11 0 11 C0 7.37 0 3.74 0 0 Z " fill="#45B3BC" transform="translate(235,224)"/>
<path d="M0 0 C4 1 4 1 5.25 3.0625 C5.4975 3.701875 5.745 4.34125 6 5 C6.33 3.35 6.66 1.7 7 0 C7.99 0 8.98 0 10 0 C10 3.63 10 7.26 10 11 C6 10 6 10 4.25 7.4375 C3.8375 6.633125 3.425 5.82875 3 5 C2.67 6.98 2.34 8.96 2 11 C1.34 11 0.68 11 0 11 C0 7.37 0 3.74 0 0 Z " fill="#42B2BB" transform="translate(140,224)"/>
<path d="M0 0 C2.31 0 4.62 0 7 0 C7.79953138 3.28696233 8.09658936 4.71023192 7 8 C7.33 8.99 7.66 9.98 8 11 C7.01 11 6.02 11 5 11 C4.67 9.68 4.34 8.36 4 7 C3.34 7 2.68 7 2 7 C2 8.32 2 9.64 2 11 C1.34 11 0.68 11 0 11 C0 7.37 0 3.74 0 0 Z " fill="#31ABB5" transform="translate(62,224)"/>
<path d="M0 0 C3 0.1875 3 0.1875 5 1.1875 C5 1.8475 5 2.5075 5 3.1875 C2.69 3.1875 0.38 3.1875 -2 3.1875 C-2 4.8375 -2 6.4875 -2 8.1875 C-0.68 8.1875 0.64 8.1875 2 8.1875 C1.34 7.8575 0.68 7.5275 0 7.1875 C0 6.5275 0 5.8675 0 5.1875 C1.98 5.1875 3.96 5.1875 6 5.1875 C5.42655063 8.05474686 5.1385485 9.0489515 3 11.1875 C0 11.4375 0 11.4375 -3 11.1875 C-5 9.1875 -5 9.1875 -5.25 5.6875 C-4.93468205 1.27304872 -4.47748899 0.27984306 0 0 Z " fill="#3FB1BA" transform="translate(157,223.8125)"/>
<path d="M0 0 C1.32 0 2.64 0 4 0 C4.50367757 1.45706726 5.00282556 2.91570096 5.5 4.375 C5.7784375 5.18710938 6.056875 5.99921875 6.34375 6.8359375 C7 9 7 9 7 11 C4.36 10.34 1.72 9.68 -1 9 C-1 9.66 -1 10.32 -1 11 C-1.66 11 -2.32 11 -3 11 C-2.69078116 9.54096742 -2.37751201 8.08279278 -2.0625 6.625 C-1.88847656 5.81289062 -1.71445313 5.00078125 -1.53515625 4.1640625 C-1 2 -1 2 0 0 Z " fill="#63BFC7" transform="translate(257,224)"/>
<path d="M0 0 C1.32 0 2.64 0 4 0 C4.99 3.63 5.98 7.26 7 11 C6.34 11 5.68 11 5 11 C5 10.34 5 9.68 5 9 C3.02 9 1.04 9 -1 9 C-1 9.66 -1 10.32 -1 11 C-1.66 11 -2.32 11 -3 11 C-2.44894091 7.0507432 -1.61064629 3.65079826 0 0 Z " fill="#65C0C7" transform="translate(53,224)"/>
<path d="M0 0 C0.66 0 1.32 0 2 0 C2 2.97 2 5.94 2 9 C3.32 9 4.64 9 6 9 C6 6.03 6 3.06 6 0 C6.99 0 7.98 0 9 0 C9.05399736 1.45792884 9.09279177 2.91642712 9.125 4.375 C9.14820313 5.18710938 9.17140625 5.99921875 9.1953125 6.8359375 C9 9 9 9 7 11 C3.9375 11.1875 3.9375 11.1875 1 11 C0 10 0 10 -0.09765625 7.71484375 C-0.08605469 6.79832031 -0.07445312 5.88179687 -0.0625 4.9375 C-0.05347656 4.01839844 -0.04445312 3.09929687 -0.03515625 2.15234375 C-0.02355469 1.44207031 -0.01195312 0.73179687 0 0 Z " fill="#54B9C1" transform="translate(181,224)"/>
<path d="M0 0 C0.99 0 1.98 0 3 0 C3 2.97 3 5.94 3 9 C4.32 9 5.64 9 7 9 C7 6.03 7 3.06 7 0 C7.66 0 8.32 0 9 0 C9.02688151 1.64574566 9.04634123 3.29161413 9.0625 4.9375 C9.07410156 5.85402344 9.08570313 6.77054688 9.09765625 7.71484375 C9 10 9 10 8 11 C5.0625 11.1875 5.0625 11.1875 2 11 C0 9 0 9 -0.1953125 6.8359375 C-0.17210937 6.02382812 -0.14890625 5.21171875 -0.125 4.375 C-0.10695312 3.55773437 -0.08890625 2.74046875 -0.0703125 1.8984375 C-0.04710937 1.27195313 -0.02390625 0.64546875 0 0 Z " fill="#55BAC1" transform="translate(201,224)"/>
<path d="M0 0 C3.375 -0.125 3.375 -0.125 7 0 C7.66 0.66 8.32 1.32 9 2 C8.9765625 4.1640625 8.9765625 4.1640625 8.625 6.625 C8.45871094 7.85089844 8.45871094 7.85089844 8.2890625 9.1015625 C8.14597656 10.04128906 8.14597656 10.04128906 8 11 C7.01 10.67 6.02 10.34 5 10 C4.1875 8.1875 4.1875 8.1875 4 6 C4.9375 3.75 4.9375 3.75 6 2 C4.68 2 3.36 2 2 2 C2 4.97 2 7.94 2 11 C1.34 11 0.68 11 0 11 C0 7.37 0 3.74 0 0 Z " fill="#45B3BC" transform="translate(23,224)"/>
<path d="M0 0 C0.66 0 1.32 0 2 0 C2 1.65 2 3.3 2 5 C3.65 5 5.3 5 7 5 C7 3.35 7 1.7 7 0 C7.66 0 8.32 0 9 0 C9 3.63 9 7.26 9 11 C8.34 11 7.68 11 7 11 C7 9.35 7 7.7 7 6 C5.35 6 3.7 6 2 6 C2 7.65 2 9.3 2 11 C1.34 11 0.68 11 0 11 C0 7.37 0 3.74 0 0 Z " fill="#34ACB5" transform="translate(97,224)"/>
<path d="M0 0 C2.31 0 4.62 0 7 0 C7 0.66 7 1.32 7 2 C5.68 2 4.36 2 3 2 C3 2.99 3 3.98 3 5 C3.99 5 4.98 5 6 5 C6 5.66 6 6.32 6 7 C5.01 7 4.02 7 3 7 C3 8.32 3 9.64 3 11 C2.01 11 1.02 11 0 11 C0 7.37 0 3.74 0 0 Z " fill="#52B9C1" transform="translate(172,224)"/>
<path d="M0 0 C2.31 0.33 4.62 0.66 7 1 C7 4.63 7 8.26 7 12 C6.01 12 5.02 12 4 12 C3.67 9.36 3.34 6.72 3 4 C1.68 5.32 0.36 6.64 -1 8 C-0.38722388 5.03824877 0.25372522 3.61941217 2 1 C1.34 0.67 0.68 0.34 0 0 Z " fill="#86CED3" transform="translate(131,223)"/>
<path d="M0 0 C2.31 0 4.62 0 7 0 C7 0.66 7 1.32 7 2 C5.68 2 4.36 2 3 2 C3 2.66 3 3.32 3 4 C3.99 4 4.98 4 6 4 C6 4.66 6 5.32 6 6 C4.68 6 3.36 6 2 6 C2 7.32 2 8.64 2 10 C3.32 10.33 4.64 10.66 6 11 C4.02 11 2.04 11 0 11 C0 7.37 0 3.74 0 0 Z " fill="#47B4BD" transform="translate(223,224)"/>
<path d="M0 0 C3.375 -0.125 3.375 -0.125 7 0 C9 2 9 2 9.125 4.625 C9.08375 5.40875 9.0425 6.1925 9 7 C8.38125 6.0409375 8.38125 6.0409375 7.75 5.0625 C5.82189513 2.79009069 4.88575819 2.39803561 2 2 C2 4.64 2 7.28 2 10 C2.99 10.33 3.98 10.66 5 11 C3.35 11 1.7 11 0 11 C0 7.37 0 3.74 0 0 Z " fill="#39AEB8" transform="translate(72,224)"/>
<path d="M0 0 C2.64 0 5.28 0 8 0 C8 0.66 8 1.32 8 2 C7.34 2 6.68 2 6 2 C6 4.97 6 7.94 6 11 C5.01 11 4.02 11 3 11 C3 8.03 3 5.06 3 2 C2.01 2 1.02 2 0 2 C0 1.34 0 0.68 0 0 Z " fill="#51B8C0" transform="translate(191,224)"/>
<path d="M0 0 C0.99 0 1.98 0 3 0 C3.66 0.99 4.32 1.98 5 3 C5.66 2.01 6.32 1.02 7 0 C7.66 0 8.32 0 9 0 C8.01 3.63 7.02 7.26 6 11 C5.34 11 4.68 11 4 11 C3.52014033 9.72942818 3.0411407 8.45853152 2.5625 7.1875 C2.16224609 6.12595703 2.16224609 6.12595703 1.75390625 5.04296875 C1.13774814 3.37327604 0.56280765 1.68842296 0 0 Z " fill="#44B3BB" transform="translate(277,224)"/>
<path d="M0 0 C1.98 0 3.96 0 6 0 C6 0.66 6 1.32 6 2 C4.68 2 3.36 2 2 2 C2 2.99 2 3.98 2 5 C3.32 5.33 4.64 5.66 6 6 C4.68 6 3.36 6 2 6 C2 7.32 2 8.64 2 10 C3.32 10.33 4.64 10.66 6 11 C4.02 11 2.04 11 0 11 C0 7.37 0 3.74 0 0 Z " fill="#33ACB5" transform="translate(246,224)"/>
<path d="M0 0 C1.67542976 0.28604898 3.34385343 0.61781233 5 1 C5 2.65 5 4.3 5 6 C3.34385343 6.38218767 1.67542976 6.71395102 0 7 C-1 6 -1 6 -1.125 3.5 C-1 1 -1 1 0 0 Z " fill="#F0F9F9" transform="translate(14,226)"/>
<path d="M0 0 C2.05078125 0.03255208 4.1015625 0.06510417 6.15234375 0.09765625 C6.15234375 0.75765625 6.15234375 1.41765625 6.15234375 2.09765625 C4.17234375 2.42765625 2.19234375 2.75765625 0.15234375 3.09765625 C0.15234375 3.75765625 0.15234375 4.41765625 0.15234375 5.09765625 C1.14234375 5.42765625 2.13234375 5.75765625 3.15234375 6.09765625 C1.49619718 6.47984392 -0.17222649 6.81160727 -1.84765625 7.09765625 C-2.84765625 6.09765625 -2.84765625 6.09765625 -2.97265625 3.59765625 C-2.80017347 0.14800071 -2.80017347 0.14800071 0 0 Z " fill="#E6F4F5" transform="translate(156.84765625,225.90234375)"/>
<path d="M0 0 C2.31 0 4.62 0 7 0 C7 0.66 7 1.32 7 2 C5.35 2 3.7 2 2 2 C2 2.99 2 3.98 2 5 C3.32 5.33 4.64 5.66 6 6 C4.68 6 3.36 6 2 6 C2 7.65 2 9.3 2 11 C1.34 11 0.68 11 0 11 C0 7.37 0 3.74 0 0 Z " fill="#3DB0B9" transform="translate(2,224)"/>
<path d="M0 0 C2.64 0 5.28 0 8 0 C8 0.66 8 1.32 8 2 C7.01 2 6.02 2 5 2 C5 4.97 5 7.94 5 11 C4.34 11 3.68 11 3 11 C3 8.03 3 5.06 3 2 C2.01 2 1.02 2 0 2 C0 1.34 0 0.68 0 0 Z " fill="#37AEB7" transform="translate(87,224)"/>
<path d="M0 0 C2.475 0.495 2.475 0.495 5 1 C5 2.65 5 4.3 5 6 C3.35 6.33 1.7 6.66 0 7 C0 4.69 0 2.38 0 0 Z " fill="#EEF7F8" transform="translate(268,226)"/>
<path d="M0 0 C0.99 0 1.98 0 3 0 C3 3.63 3 7.26 3 11 C2.01 11 1.02 11 0 11 C0 7.37 0 3.74 0 0 Z " fill="#59BBC3" transform="translate(108,224)"/>
<path d="M0 0 C0.66 0 1.32 0 2 0 C2 0.66 2 1.32 2 2 C3.98 1.67 5.96 1.34 8 1 C8.33 2.65 8.66 4.3 9 6 C8.34 6 7.68 6 7 6 C7 5.34 7 4.68 7 4 C5.02 4 3.04 4 1 4 C1 4.66 1 5.32 1 6 C0.34 6 -0.32 6 -1 6 C-0.67 4.02 -0.34 2.04 0 0 Z " fill="#40B1BA" transform="translate(51,229)"/>
<path d="M0 0 C3.875 0.875 3.875 0.875 5 2 C5.2982732 4.83359542 5.35602594 6.43785378 3.8125 8.875 C2 10 2 10 -0.6875 9.6875 C-1.450625 9.460625 -2.21375 9.23375 -3 9 C-1.68 8.34 -0.36 7.68 1 7 C1.15149298 3.37114676 1.15149298 3.37114676 0 0 Z " fill="#4FB7BF" transform="translate(271,225)"/>
<path d="M0 0 C0.99 1.32 1.98 2.64 3 4 C5.43717258 3.72965366 5.43717258 3.72965366 8 3 C8.66 2.01 9.32 1.02 10 0 C10.125 2.375 10.125 2.375 10 5 C8 7 8 7 5 7.25 C2 7 2 7 0 5 C-0.125 2.375 -0.125 2.375 0 0 Z " fill="#3AAFB8" transform="translate(11,228)"/>
<path d="M0 0 C0.66 0 1.32 0 2 0 C2 3.63 2 7.26 2 11 C2.99 11.33 3.98 11.66 5 12 C2.625 12.625 2.625 12.625 0 13 C-0.66 12.34 -1.32 11.68 -2 11 C-1.34 11 -0.68 11 0 11 C0 7.37 0 3.74 0 0 Z " fill="#DCF0F2" transform="translate(106,224)"/>
<path d="M0 0 C0.99 0 1.98 0 3 0 C2.01 3.63 1.02 7.26 0 11 C-0.99 11 -1.98 11 -3 11 C-3 10.01 -3 9.02 -3 8 C-2.34 8 -1.68 8 -1 8 C-0.67 5.36 -0.34 2.72 0 0 Z " fill="#48B5BD" transform="translate(46,224)"/>
<path d="M0 0 C0.66 0.33 1.32 0.66 2 1 C2.40729228 3.32156597 2.74438677 5.6568787 3 8 C1.35 8 -0.3 8 -2 8 C-1.125 2.25 -1.125 2.25 0 0 Z " fill="#E7F5F6" transform="translate(45,199)"/>
<path d="M0 0 C0.66 0 1.32 0 2 0 C2.33 1.98 2.66 3.96 3 6 C0.36 5.34 -2.28 4.68 -5 4 C-5 4.66 -5 5.32 -5 6 C-5.66 6 -6.32 6 -7 6 C-6.34 4.35 -5.68 2.7 -5 1 C-2.525 1.99 -2.525 1.99 0 3 C0 2.01 0 1.02 0 0 Z " fill="#39AEB7" transform="translate(261,229)"/>
<path d="M0 0 C1.32 0 2.64 0 4 0 C3.67 1.98 3.34 3.96 3 6 C3.66 6 4.32 6 5 6 C5.33 6.99 5.66 7.98 6 9 C5.01 9 4.02 9 3 9 C2.67 7.68 2.34 6.36 2 5 C1.34 5 0.68 5 0 5 C0 3.35 0 1.7 0 0 Z " fill="#81CCD1" transform="translate(64,226)"/>
<path d="M0 0 C0.33 0 0.66 0 1 0 C1 3.63 1 7.26 1 11 C-2 10 -2 10 -2.875 8.3125 C-3.05576685 4.96831319 -1.62387111 2.85801315 0 0 Z " fill="#DEF1F2" transform="translate(71,224)"/>
<path d="M0 0 C0.66 0 1.32 0 2 0 C2 2.64 2 5.28 2 8 C1.01 7.67 0.02 7.34 -1 7 C-1 6.34 -1 5.68 -1 5 C-1.99 5 -2.98 5 -4 5 C-4 4.01 -4 3.02 -4 2 C-2.68 2 -1.36 2 0 2 C0 1.34 0 0.68 0 0 Z " fill="#D2ECEF" transform="translate(179,224)"/>
<path d="M0 0 C1.32 0.33 2.64 0.66 4 1 C4 2.65 4 4.3 4 6 C2.68 6.33 1.36 6.66 0 7 C0 4.69 0 2.38 0 0 Z " fill="#F7FBFC" transform="translate(75,226)"/>
<path d="M0 0 C1.98 0 3.96 0 6 0 C5.75 1.875 5.75 1.875 5 4 C2.9375 5.25 2.9375 5.25 1 6 C0.34 5.34 -0.32 4.68 -1 4 C-0.01 3.67 0.98 3.34 2 3 C1.34 2.67 0.68 2.34 0 2 C0 1.34 0 0.68 0 0 Z " fill="#49B5BD" transform="translate(157,229)"/>
<path d="M0 0 C0.66 0 1.32 0 2 0 C2 3.3 2 6.6 2 10 C1.01 10.33 0.02 10.66 -1 11 C-1.66 10.34 -2.32 9.68 -3 9 C-2.01 9 -1.02 9 0 9 C0 6.03 0 3.06 0 0 Z " fill="#45B4BC" transform="translate(208,224)"/>
<path d="M0 0 C0.99 0 1.98 0 3 0 C2.67 3.63 2.34 7.26 2 11 C1.34 11 0.68 11 0 11 C0 7.37 0 3.74 0 0 Z " fill="#39AEB7" transform="translate(140,224)"/>
<path d="M0 0 C0.66 0 1.32 0 2 0 C2 3.63 2 7.26 2 11 C1.01 11 0.02 11 -1 11 C-0.67 7.37 -0.34 3.74 0 0 Z " fill="#44B3BB" transform="translate(121,224)"/>
<path d="M0 0 C0.99 0 1.98 0 3 0 C2.67 3.63 2.34 7.26 2 11 C1.34 11 0.68 11 0 11 C0 7.37 0 3.74 0 0 Z " fill="#38AEB7" transform="translate(113,224)"/>
<path d="M0 0 C0.66 0 1.32 0 2 0 C2.04898438 0.62648437 2.09796875 1.25296875 2.1484375 1.8984375 C2.22320312 2.71570313 2.29796875 3.53296875 2.375 4.375 C2.44460937 5.18710938 2.51421875 5.99921875 2.5859375 6.8359375 C2.82892588 9.20334191 2.82892588 9.20334191 5 11 C3.35 10.67 1.7 10.34 0 10 C0 6.7 0 3.4 0 0 Z " fill="#3BAFB8" transform="translate(181,224)"/>
<path d="M0 0 C1.32 0.33 2.64 0.66 4 1 C3.01 1 2.02 1 1 1 C1 1.66 1 2.32 1 3 C2.175625 3.185625 2.175625 3.185625 3.375 3.375 C6 4 6 4 8 6 C4.42355152 7.2380014 1.66305234 6.74926071 -2 6 C-1.34 5.34 -0.68 4.68 0 4 C0 2.68 0 1.36 0 0 Z " fill="#C4E7E9" transform="translate(248,230)"/>
<path d="M0 0 C0.33 0 0.66 0 1 0 C1 3.63 1 7.26 1 11 C-0.32 10.34 -1.64 9.68 -3 9 C-2.67 7.68 -2.34 6.36 -2 5 C-1.34 5 -0.68 5 0 5 C0 3.35 0 1.7 0 0 Z " fill="#D7EEF0" transform="translate(245,224)"/>
<path d="M0 0 C0.66 0 1.32 0 2 0 C2 1.32 2 2.64 2 4 C2.66 4.33 3.32 4.66 4 5 C3.01 5.33 2.02 5.66 1 6 C1.33 7.65 1.66 9.3 2 11 C1.34 11 0.68 11 0 11 C0 7.37 0 3.74 0 0 Z " fill="#37ADB7" transform="translate(125,224)"/>
<path d="M0 0 C0.33 0 0.66 0 1 0 C1 2.64 1 5.28 1 8 C-0.875 7.75 -0.875 7.75 -3 7 C-4.25 4.9375 -4.25 4.9375 -5 3 C-4.34 2.34 -3.68 1.68 -3 1 C-2.34 2.32 -1.68 3.64 -1 5 C-0.67 3.35 -0.34 1.7 0 0 Z " fill="#5BBCC4" transform="translate(147,224)"/>
<path d="M0 0 C1.32 0 2.64 0 4 0 C3.30058404 3.14737182 2.23921302 6.02588876 1 9 C0.67 9 0.34 9 0 9 C0 6.03 0 3.06 0 0 Z " fill="#9CD7DB" transform="translate(237,226)"/>
<path d="M0 0 C1.32 0 2.64 0 4 0 C3.30058404 3.14737182 2.23921302 6.02588876 1 9 C0.67 9 0.34 9 0 9 C0 6.03 0 3.06 0 0 Z " fill="#A3D9DD" transform="translate(25,226)"/>
<path d="M0 0 C2.0625 0.4375 2.0625 0.4375 4 1 C3.25 5.75 3.25 5.75 1 8 C1.33 6.02 1.66 4.04 2 2 C1.01 1.67 0.02 1.34 -1 1 C-0.67 0.67 -0.34 0.34 0 0 Z " fill="#3CB0B9" transform="translate(66,224)"/>
<path d="M0 0 C2.64 0 5.28 0 8 0 C8 0.66 8 1.32 8 2 C7.030625 2.12375 6.06125 2.2475 5.0625 2.375 C4.051875 2.58125 3.04125 2.7875 2 3 C1.67 3.66 1.34 4.32 1 5 C0.67 3.35 0.34 1.7 0 0 Z " fill="#DAEFF1" transform="translate(155,226)"/>
</svg>
